<svg xmlns="http://www.w3.org/2000/svg" viewBox="0 0 631 213" fill="#F7982A" role="img" aria-label="Cibes">
  <path d="M0 0 C-0.9 5.12 -4.25 7.76 -7.81 11.31 C-8.76 12.3 -8.76 12.3 -9.72 13.31 C-10.33 13.92 -10.95 14.54 -11.58 15.18 C-12.42 16.03 -12.42 16.03 -13.28 16.89 C-15 18 -15 18 -17.07 17.77 C-19.59 16.77 -21.51 15.36 -23.69 13.75 C-35.97 4.96 -49.41 -1.43 -64.75 -1.31 C-65.54 -1.31 -66.32 -1.3 -67.13 -1.3 C-82.32 -0.99 -94.94 4.65 -106 15 C-108.57 17.86 -110.85 20.82 -113 24 C-113.39 24.58 -113.79 25.15 -114.2 25.75 C-117.4 30.61 -119.48 35.41 -121.25 40.94 C-121.51 41.68 -121.76 42.43 -122.02 43.2 C-128.72 63.62 -126.54 89.59 -118 109 C-110 124.05 -98.94 134.01 -83 140 C-69.97 143.83 -56.58 143.16 -44 138 C-42.78 137.53 -42.78 137.53 -41.54 137.04 C-32.37 132.98 -22.56 125.99 -15.77 118.57 C-15.19 118.05 -14.6 117.53 -14 117 C-9.4 117.57 -6.94 120.69 -3.87 123.88 C-3.34 124.42 -2.8 124.96 -2.25 125.52 C4 131.89 4 131.89 4 136 C1.95 137.98 1.95 137.98 -0.87 140.19 C-1.88 140.98 -2.89 141.78 -3.93 142.6 C-4.95 143.39 -5.96 144.18 -7 145 C-7.84 145.7 -8.67 146.4 -9.54 147.12 C-29.83 164.05 -52.58 168.68 -78.39 166.59 C-92.5 165.17 -105.6 160.52 -117 152 C-117.93 151.31 -118.87 150.62 -119.83 149.91 C-138.18 135.65 -149.53 113 -152.75 90.12 C-156.42 59.44 -152.09 29 -133 4 C-132.26 2.99 -131.51 1.98 -130.75 0.94 C-117.15 -14.79 -97.51 -23.78 -77.11 -25.76 C-46.2 -27.81 -23.86 -19.52 0 0 Z " transform="translate(171,34)"/>
  <path d="M0 0 C6.93 0 13.86 0 21 0 C21.74 7.27 22.14 14.39 22.1 21.7 C22.1 22.66 22.09 23.62 22.09 24.61 C22.09 27.64 22.08 30.66 22.06 33.69 C22.06 35.76 22.05 37.83 22.05 39.9 C22.04 44.93 22.02 49.97 22 55 C22.86 54.19 22.86 54.19 23.74 53.37 C28.18 49.29 32.08 46 37.63 43.63 C38.67 43.16 39.71 42.7 40.79 42.23 C53.86 37.23 72.38 36.13 85.5 41.67 C102.17 50.54 111.86 62.41 118.13 80.2 C124.04 99.91 123.24 123.36 114.12 142 C106.41 155.82 96.18 167 80.69 171.94 C76.48 172.99 72.33 173.73 68 174 C66.93 174.08 66.93 174.08 65.84 174.16 C49.84 174.77 36.32 170.15 24.36 159.52 C23 158 23 158 23 156 C22.34 156 21.68 156 21 156 C21.13 157.28 21.13 157.28 21.25 158.59 C21.36 159.69 21.46 160.8 21.56 161.94 C21.67 163.04 21.77 164.14 21.88 165.28 C21.92 166.18 21.96 167.07 22 168 C20.41 169.59 18.76 169.13 16.56 169.13 C15.22 169.13 15.22 169.13 13.85 169.14 C12.91 169.13 11.97 169.13 11 169.13 C10.06 169.13 9.12 169.13 8.15 169.14 C7.25 169.14 6.36 169.13 5.44 169.13 C4.61 169.13 3.78 169.13 2.93 169.13 C1 169 1 169 0 168 C-0.11 165.87 -0.15 163.73 -0.16 161.59 C-0.17 160.91 -0.18 160.24 -0.18 159.54 C-0.2 157.25 -0.21 154.97 -0.22 152.68 C-0.23 151.05 -0.24 149.42 -0.26 147.78 C-0.29 143.34 -0.31 138.89 -0.34 134.44 C-0.36 129.8 -0.39 125.16 -0.42 120.51 C-0.47 112.71 -0.52 104.91 -0.56 97.11 C-0.61 88.08 -0.66 79.05 -0.72 70.02 C-0.77 62.29 -0.82 54.55 -0.87 46.81 C-0.89 42.18 -0.92 37.55 -0.95 32.92 C-0.98 28.57 -1 24.22 -1.02 19.87 C-1.03 18.27 -1.04 16.67 -1.06 15.07 C-1.07 12.89 -1.08 10.71 -1.09 8.54 C-1.1 7.31 -1.1 6.09 -1.11 4.84 C-1 2 -1 2 0 0 Z M34.73 70.76 C24.04 84.58 22.49 100.09 24 117 C25.84 128.73 31.01 138.57 40.5 145.94 C49.36 151.49 58.75 152.47 69 151 C78.32 148.18 84.56 142.86 89.43 134.57 C97.37 118.78 97.45 101.74 93 85 C89.34 74.99 83.47 67.12 74 62 C60.32 57.61 44.76 60.05 34.73 70.76 Z " transform="translate(236,27)"/>
  <path d="M0 0 C-0.87 4.54 -3.48 7.1 -6.62 10.31 C-7.13 10.88 -7.64 11.44 -8.17 12.02 C-9.72 13.6 -11.09 14.87 -13 16 C-17.51 16.01 -20.58 15.01 -24.31 12.56 C-34.19 6.83 -46.99 6.61 -58.07 8.54 C-64.23 10.22 -68.39 12.59 -72 18 C-72.39 20.37 -72.39 20.37 -72.37 22.94 C-72.42 24.22 -72.42 24.22 -72.46 25.53 C-71.84 28.85 -70.62 29.91 -68 32 C-60.04 36.37 -50.96 38 -42.19 39.94 C-6.11 47.92 -6.11 47.92 3 62 C8.59 72.44 9.34 82.01 5.99 93.35 C4.52 97.3 2.46 100.6 0 104 C-0.56 104.83 -1.11 105.65 -1.69 106.5 C-2.34 107.24 -2.34 107.24 -3 108 C-3.66 108 -4.32 108 -5 108 C-5 108.66 -5 109.32 -5 110 C-16.99 119.11 -29.91 121.19 -44.5 121.25 C-45.7 121.27 -46.91 121.29 -48.15 121.31 C-59.54 121.36 -70.08 119.66 -80.19 114.25 C-80.86 113.91 -81.52 113.56 -82.21 113.2 C-87.13 110.61 -91.72 107.67 -96.18 104.35 C-97.96 102.95 -97.96 102.95 -100 102 C-100.39 99.93 -100.39 99.93 -100 97 C-98.22 94.42 -96.05 92.31 -93.81 90.13 C-93.23 89.52 -92.66 88.91 -92.06 88.29 C-87.8 84.05 -87.8 84.05 -84.5 83.84 C-81.16 85.39 -78.15 87.3 -75.12 89.38 C-62.34 98.09 -49.13 100.69 -33.75 98.38 C-27.48 96.95 -23.09 93.48 -19 88.63 C-17.07 83.57 -17.28 79.66 -19.37 74.81 C-28.29 65.26 -44.28 63.24 -56.56 60.53 C-71.48 57.22 -87.25 52.73 -95.91 39.25 C-99.54 31.79 -99.22 20.99 -96.87 13.19 C-92.49 2.25 -84.74 -5.23 -74.1 -10.16 C-50.16 -19.74 -20.17 -16.39 0 0 Z " transform="translate(598,79)"/>
  <path d="M0 0 C12.3 10.05 18.42 24.89 20.71 40.28 C21.1 44.45 21.24 48.59 21.27 52.78 C21.28 53.52 21.29 54.27 21.3 55.04 C21.27 60.41 21.27 60.41 19.02 62.65 C16.04 62.87 13.15 62.96 10.17 62.97 C9.25 62.98 8.33 62.99 7.39 63 C4.35 63.03 1.31 63.05 -1.73 63.07 C-3.84 63.09 -5.94 63.1 -8.05 63.13 C-13.6 63.18 -19.14 63.22 -24.69 63.25 C-30.35 63.29 -36 63.34 -41.66 63.39 C-52.77 63.49 -63.87 63.58 -74.98 63.65 C-74.51 65.74 -74.04 67.83 -73.57 69.92 C-73.31 71.08 -73.05 72.25 -72.78 73.45 C-71.87 77.06 -70.74 79.88 -68.98 83.15 C-68.48 84.09 -67.99 85.03 -67.48 86 C-66.45 87.82 -65.36 89.61 -64.23 91.37 C-63.81 92.12 -63.4 92.88 -62.98 93.65 C-63.31 94.31 -63.64 94.97 -63.98 95.65 C-73.22 95.65 -82.46 95.65 -91.98 95.65 C-97.59 84.43 -100.39 75.07 -100.98 62.65 C-101.04 61.49 -101.04 61.49 -101.1 60.3 C-101.43 48.09 -99.58 35.97 -94.98 24.65 C-94.65 23.81 -94.33 22.98 -93.99 22.11 C-89.47 11.79 -80.49 2.59 -70.98 -3.35 C-70.41 -3.71 -69.85 -4.07 -69.27 -4.45 C-48.38 -16.37 -19.22 -13.64 0 0 Z M-63.98 18.65 C-63.98 19.31 -63.98 19.97 -63.98 20.65 C-64.64 20.65 -65.3 20.65 -65.98 20.65 C-67.5 22.76 -67.5 22.76 -68.98 25.4 C-69.49 26.28 -70.01 27.17 -70.54 28.07 C-71.01 28.93 -71.49 29.78 -71.98 30.65 C-72.37 31.3 -72.76 31.94 -73.16 32.61 C-74.35 35.21 -74.35 35.21 -73.98 40.65 C-51.21 40.65 -28.44 40.65 -4.98 40.65 C-6.93 28.94 -9.13 22.06 -18.29 14.65 C-31.95 6.11 -52.08 7.87 -63.98 18.65 Z " transform="translate(464.98,100.35)"/>
  <path d="M0 0 C7.26 0 14.52 0 22 0 C22.02 16.93 22.04 33.87 22.05 50.8 C22.06 58.66 22.06 66.52 22.08 74.38 C22.09 81.23 22.09 88.08 22.09 94.93 C22.1 98.56 22.1 102.19 22.11 105.82 C22.11 109.86 22.11 113.91 22.11 117.95 C22.12 119.16 22.12 120.38 22.12 121.63 C22.12 122.72 22.12 123.82 22.12 124.94 C22.12 125.9 22.12 126.86 22.12 127.85 C22 130 22 130 21 131 C17.7 131.28 14.38 131.23 11.06 131.25 C9.66 131.28 9.66 131.28 8.24 131.31 C7.34 131.32 6.45 131.32 5.54 131.33 C4.71 131.34 3.89 131.35 3.05 131.36 C2.37 131.24 1.7 131.12 1 131 C-1.2 127.69 -1.25 126.71 -1.25 122.87 C-1.25 121.81 -1.26 120.75 -1.26 119.65 C-1.25 118.49 -1.25 117.32 -1.24 116.12 C-1.24 114.9 -1.25 113.67 -1.25 112.41 C-1.25 109.05 -1.25 105.68 -1.24 102.32 C-1.23 98.8 -1.23 95.28 -1.23 91.77 C-1.23 85.86 -1.22 79.96 -1.21 74.05 C-1.19 67.22 -1.18 60.38 -1.19 53.55 C-1.19 46.98 -1.18 40.42 -1.17 33.85 C-1.17 31.05 -1.17 28.25 -1.17 25.45 C-1.17 21.55 -1.16 17.65 -1.15 13.75 C-1.15 12.58 -1.15 11.41 -1.15 10.21 C-1.14 9.15 -1.14 8.09 -1.13 7 C-1.13 6.08 -1.13 5.16 -1.13 4.21 C-1 2 -1 2 0 0 Z " transform="translate(193,65)"/>
  <path d="M0 0 C22.32 -1.81 22.32 -1.81 28.31 2.24 C30.44 5.13 30.44 5.13 32.25 8.16 C35.85 13.99 42.2 16.78 48.69 18.44 C59.75 20.13 71.54 19.03 80.95 12.68 C83.48 10.66 85.55 8.78 87.18 5.95 C88.58 3.51 89.83 1.82 92 0 C96.33 -0.99 100.46 -0.76 104.88 -0.5 C106.62 -0.45 106.62 -0.45 108.41 -0.39 C111.27 -0.3 114.14 -0.17 117 0 C118.18 3.55 117.5 4.64 115.9 7.89 C115.58 8.5 115.27 9.12 114.94 9.75 C114.62 10.38 114.3 11 113.97 11.65 C111.5 16.35 108.83 20.26 105 24 C104.34 24 103.68 24 103 24 C103 24.66 103 25.32 103 26 C97.34 31.32 91.01 34.73 83.81 37.44 C83.16 37.68 82.51 37.93 81.84 38.18 C69.14 42.67 51.87 42.91 39 39 C37.92 38.69 36.83 38.39 35.71 38.07 C19.14 32.84 8.98 22.29 0.19 7.83 C-1.17 4.58 -0.82 3.33 0 0 Z " transform="translate(370,27)"/>
  <path d="M0 0 C3.48 -0.03 6.96 -0.05 10.44 -0.06 C11.93 -0.08 11.93 -0.08 13.45 -0.09 C14.39 -0.09 15.34 -0.09 16.31 -0.1 C17.62 -0.11 17.62 -0.11 18.96 -0.11 C21 0 21 0 22 1 C22.29 3.97 22.52 6.9 22.69 9.88 C22.75 10.7 22.81 11.53 22.87 12.39 C22.92 13.18 22.96 13.98 23.01 14.8 C23.06 15.54 23.1 16.27 23.15 17.02 C23 19 23 19 21 22 C18.85 22.34 18.85 22.34 16.21 22.29 C15.27 22.28 14.33 22.27 13.36 22.26 C11.88 22.23 11.88 22.23 10.38 22.19 C8.89 22.17 8.89 22.17 7.37 22.15 C4.91 22.11 2.46 22.06 0 22 C-1.08 18.09 -1.13 14.5 -1.12 10.44 C-1.13 9.77 -1.13 9.09 -1.14 8.4 C-1.13 5.33 -0.98 2.94 0 0 Z " transform="translate(193,27)"/>
</svg>
